<?xml version="1.0" encoding="utf-8"?>
<!-- Generator: Adobe Illustrator 24.2.0, SVG Export Plug-In . SVG Version: 6.00 Build 0)  -->
<svg version="1.1" id="Layer_1" xmlns="http://www.w3.org/2000/svg" xmlns:xlink="http://www.w3.org/1999/xlink" x="0px" y="0px"
	 viewBox="0 0 333.4 299.8" style="enable-background:new 0 0 333.4 299.8;" xml:space="preserve">
<style type="text/css">
	.st0{fill:#789BE9;}
</style>
<g>
	<path class="st0" d="M82.6,32.9L116.2,0h100.2L250,32.9h50.1c9.4,0.4,17.3,3.8,23.7,10.2c6.4,6.3,9.6,14,9.6,23.1v200.3
		c0,9.1-3.2,16.9-9.6,23.3c-6.3,6.3-14,9.6-23.3,10H32.9c-9-0.4-16.8-3.8-23.3-10.4C3.2,283,0,275.1,0,265.7V65.4
		C0,56,3.2,48.1,9.6,41.7c3.3-3.1,6.9-5.6,10.9-7.3c4-1.8,8.2-2.8,12.8-3L82.6,32.9z M165.5,83.8c-23.6,0.4-43.4,8.5-59.3,24.5
		c-15.9,15.9-24.1,35.7-24.5,59.3c0.4,23.5,8.7,43.3,24.8,59.5c16,15.8,35.8,23.9,59.3,24.3c11.9-0.3,22.7-2.4,32.5-6.6
		c9.8-4.1,18.7-10.1,26.8-18.1c16.2-16.2,24.5-36,24.8-59.5c-0.4-23.6-8.5-43.4-24.5-59.3c-16.2-16.2-35.9-24.5-59.3-24.8
		L165.5,83.8z M165.5,117.4c14.2,0.7,25.8,5.5,34.8,14.5c9.4,9.4,14.1,21,14.1,34.8c0,7-1.2,13.5-3.6,19.3s-5.9,11.1-10.5,15.7
		c-9.3,9.3-20.9,13.9-34.8,13.9c-14,0-25.6-4.6-34.8-13.9c-9.4-9.4-14.1-21.1-14.1-35c0-14,4.7-25.6,14.1-34.8
		C139.7,122.9,151.3,118.1,165.5,117.4z"/>
</g>
</svg>
