<svg xmlns="http://www.w3.org/2000/svg" viewBox="0 0 437 630"><defs><style>.a{fill:#789be9;}</style></defs><path class="a" d="M115.56,359.13a64,64,0,1,1,0-90.57,64,64,0,0,1,0,90.57Z"/><path class="a" d="M206.36,516.75c103.41-115.23,103.52-290.46,0-405.81a16,16,0,0,0-23.18-.56l-34,34a16,16,0,0,0-.8,21.85c73.92,84.23,74.08,210.84,0,295.25a16,16,0,0,0,.8,21.85l34,34a16,16,0,0,0,23.18-.56Z"/><path class="a" d="M308.16,619c159.4-171.27,160.17-438.1,0-610.21a16,16,0,0,0-23-.35l-34,34a16,16,0,0,0-.39,22.24c129.64,140.72,129.62,357.75,0,498.46a16,16,0,0,0,.39,22.24l34,34A16,16,0,0,0,308.16,619Z"/></svg>