<?xml version="1.0" encoding="utf-8"?>
<!-- Generator: Adobe Illustrator 24.2.0, SVG Export Plug-In . SVG Version: 6.00 Build 0)  -->
<svg version="1.1" id="Layer_1" xmlns="http://www.w3.org/2000/svg" xmlns:xlink="http://www.w3.org/1999/xlink" x="0px" y="0px"
	 viewBox="0 0 359.8 305.3" style="enable-background:new 0 0 359.8 305.3;" xml:space="preserve">
<style type="text/css">
	.st0{fill:#789BE9;}
</style>
<g>
	<path class="st0" d="M156.2,64.2c17.8,2.4,19.5,13.2,30.8,33.7c6.7,14.2,10.1,29.9,10.1,47.1c0.1,24-4.5,103.2-39.8,88
		C134.6,215.6,57,156.9,45.5,149.7c-3.4-1.9-5.4-0.5-5.9,4c-1.5,7.5,8.4,51.2,2.3,58.4c-7.8,14.4-16,10.6-28.4-2.3
		C-3.6,190.7-6.8,98.5,18.1,84.1c16.6-1.3,36.9,21,72.3,47.7c26.7,22.3,45.2,37,55.5,44c13.3,5.6,12-11.1,12.7-21.8
		c0.5-16.1-2.4-32.6-8.7-49.5C142.4,85,138.9,62,156.2,64.2z M254.5,38.5c26.1,54.4,33.1,97.5,25.5,155.9c-1,14.3-17.4,74.2-31.2,82
		c-7.8,5.4-27.4-5-26-15.5c0-5.8,0.3-8.7,0.9-8.7c0.8,0,4-7.7,9.6-23c15.1-37.3,13.1-118.2,0-148.8c-2.8-7.5-5-13.1-6.7-16.9
		c-3.7-9.1-3.7-4.1-3.9-15.2C222.7,34.5,248.5,26.1,254.5,38.5z M326.2,5.8c20.3,41.6,31.1,88.9,32.9,131.4
		c1.6,26.2,0.6,22.4-3.6,64.3c-3.6,28.4-13.8,61.1-30.5,98c-4.1,4.1-14.4,8.7-23.4,3.5c-21.5-11-4.3-26.2,5.9-59.5
		c17.7-49,18.8-129,0.5-181.6c-8.8-24.1-13.6-36.3-14.5-36.8s-1.4-3.7-1.4-9.6c-1.2-11.2,19.2-18.8,27-14.1c4.5,2.8,6.8,4.3,6.8,4.5
		L326.2,5.8L326.2,5.8z"/>
</g>
</svg>
